<svg xmlns="http://www.w3.org/2000/svg" xmlns:xlink="http://www.w3.org/1999/xlink" width="100" zoomAndPan="magnify" viewBox="0 0 75 74.999997" height="100" preserveAspectRatio="xMidYMid meet" version="1.0"><defs><clipPath id="29b465ac44"><path d="M 40 66 L 55 66 L 55 73.5 L 40 73.5 Z M 40 66 " clip-rule="nonzero"/></clipPath><clipPath id="f7eb78cdcc"><path d="M 40 28 L 74.632812 28 L 74.632812 64 L 40 64 Z M 40 28 " clip-rule="nonzero"/></clipPath><clipPath id="efa07bac5b"><path d="M 20 66 L 35 66 L 35 73.5 L 20 73.5 Z M 20 66 " clip-rule="nonzero"/></clipPath></defs><g clip-path="url(#29b465ac44)"><path fill="#040606" d="M 40.21875 72.28125 C 40.21875 72.988281 40.761719 73.535156 41.464844 73.535156 L 53.121094 73.535156 C 53.824219 73.535156 54.371094 72.988281 54.371094 72.28125 L 54.371094 66.007812 L 40.21875 66.007812 L 40.21875 72.28125 " fill-opacity="1" fill-rule="nonzero"/></g><g clip-path="url(#f7eb78cdcc)"><path fill="#040606" d="M 73.917969 29.398438 C 73.449219 28.699219 72.820312 28.300781 72.035156 28.148438 C 70.949219 27.988281 69.925781 28.378906 69.296875 29.320312 L 64.066406 36.609375 C 64.21875 36.769531 64.296875 36.925781 64.453125 37.078125 C 65.78125 39.125 65.628906 41.78125 64.066406 43.589844 L 63.667969 43.980469 C 61.558594 46.414062 59.296875 48.601562 56.792969 50.648438 L 54.761719 52.289062 C 54.136719 52.757812 53.199219 52.683594 52.722656 52.058594 C 52.253906 51.429688 52.335938 50.488281 52.960938 50.019531 L 54.992188 48.371094 C 57.335938 46.488281 59.527344 44.296875 61.480469 42.019531 L 61.875 41.628906 C 62.582031 40.765625 62.652344 39.59375 62.035156 38.652344 C 61.636719 38.105469 61.097656 37.707031 60.46875 37.628906 C 59.84375 37.554688 59.214844 37.628906 58.667969 38.027344 L 47.40625 46.015625 C 46.15625 46.882812 45.222656 48.214844 44.753906 49.628906 L 40.609375 63.109375 L 55.390625 63.109375 L 65.238281 57.070312 C 66.957031 55.972656 68.203125 54.324219 68.75 52.367188 L 74.304688 31.675781 C 74.457031 30.886719 74.386719 30.105469 73.910156 29.398438 L 73.917969 29.398438 " fill-opacity="1" fill-rule="nonzero"/></g><path fill="#040606" d="M 29.742188 49.628906 C 29.265625 48.132812 28.328125 46.882812 27.082031 46.015625 L 15.898438 38.105469 C 15.351562 37.707031 14.730469 37.554688 14.105469 37.707031 C 13.476562 37.867188 12.929688 38.175781 12.539062 38.726562 C 11.914062 39.671875 11.992188 40.84375 12.691406 41.710938 L 13.085938 42.101562 C 15.039062 44.375 17.3125 46.492188 19.652344 48.453125 L 21.605469 50.097656 C 22.234375 50.566406 22.3125 51.507812 21.84375 52.136719 C 21.375 52.757812 20.4375 52.835938 19.8125 52.367188 L 17.699219 50.71875 C 15.199219 48.683594 12.929688 46.492188 10.816406 44.058594 L 10.429688 43.667969 C 8.863281 41.863281 8.707031 39.195312 10.03125 37.160156 C 10.191406 37.007812 10.269531 36.847656 10.429688 36.6875 L 5.191406 29.398438 C 4.640625 28.617188 3.785156 28.222656 2.839844 28.222656 L 2.371094 28.222656 C 1.59375 28.378906 0.886719 28.769531 0.5 29.476562 C 0.03125 30.1875 -0.0507812 30.964844 0.1875 31.753906 L 5.738281 52.445312 C 6.285156 54.40625 7.53125 56.050781 9.253906 57.152344 L 19.105469 63.191406 L 33.886719 63.191406 L 29.742188 49.628906 " fill-opacity="1" fill-rule="nonzero"/><g clip-path="url(#efa07bac5b)"><path fill="#040606" d="M 20.121094 72.28125 C 20.121094 72.988281 20.667969 73.535156 21.375 73.535156 L 33.019531 73.535156 C 33.726562 73.535156 34.273438 72.988281 34.273438 72.28125 L 34.273438 66.007812 L 20.121094 66.007812 L 20.121094 72.28125 " fill-opacity="1" fill-rule="nonzero"/></g><path fill="#040606" d="M 47.09375 22.265625 C 47.09375 22.816406 46.625 23.285156 46.078125 23.285156 L 40.371094 23.285156 L 40.371094 29.007812 C 40.371094 29.558594 39.902344 30.027344 39.355469 30.027344 L 35.054688 30.027344 C 34.503906 30.027344 34.035156 29.558594 34.035156 29.007812 L 34.035156 23.285156 L 28.328125 23.285156 C 27.78125 23.285156 27.3125 22.816406 27.3125 22.265625 L 27.3125 17.953125 C 27.3125 17.40625 27.78125 16.933594 28.328125 16.933594 L 34.117188 16.933594 L 34.117188 11.214844 C 34.117188 10.664062 34.585938 10.195312 35.132812 10.195312 L 39.433594 10.195312 C 39.980469 10.195312 40.449219 10.664062 40.449219 11.214844 L 40.449219 16.933594 L 46.15625 16.933594 C 46.707031 16.933594 47.175781 17.40625 47.175781 17.953125 L 47.175781 22.265625 Z M 57.261719 20.152344 C 57.261719 9.015625 48.347656 0.0078125 37.242188 0.0078125 C 26.144531 0.0078125 17.230469 9.015625 17.230469 20.070312 C 17.230469 31.125 26.144531 40.222656 37.242188 40.222656 C 48.347656 40.222656 57.261719 31.203125 57.261719 20.152344 " fill-opacity="1" fill-rule="nonzero"/></svg>